<svg xmlns="http://www.w3.org/2000/svg" version="1.1" viewBox="-5.0 -10.0 110.0 110.0">
 <path d="m22.691 85.625c0.30469 3.2461 1.8086 6.2617 4.2188 8.4609 2.4102 2.1953 5.5547 3.4141 8.8164 3.4141h28.707c3.2578-0.015625 6.3945-1.2383 8.8008-3.4297 2.4062-2.1914 3.9141-5.2031 4.2305-8.4453 1.3984-14.031 3.7461-37.484 5.2578-52.547 0.23828-2.3672-1.6211-4.4219-4-4.4219h-57.297c-2.3789 0-4.2344 2.0508-4 4.418 1.4922 15.09 3.8672 38.57 5.2656 52.551z"/>
 <path d="m69.004 15.594-2.0195-8.1641c-0.37109-1.418-1.1992-2.6719-2.3633-3.5625-1.1602-0.89063-2.5859-1.3711-4.0508-1.3633l-21.078-0.003906c-1.4609-0.003906-2.8789 0.48438-4.0312 1.3828-1.1523 0.89844-1.9688 2.1562-2.3203 3.5742l-2.0195 8.1641h-21.688c-1.1406 0-2.0664 0.92578-2.0664 2.0664v2.3984c0 1.1406 0.92578 2.0664 2.0664 2.0664h81.129c1.1406 0 2.0664-0.92578 2.0664-2.0664v-2.4297c0-1.1406-0.92578-2.0664-2.0664-2.0664zm-31.113 0 1.6328-6.5625h21.109l1.6328 6.5625z"/>
</svg>