<svg xmlns="http://www.w3.org/2000/svg" xmlns:xlink="http://www.w3.org/1999/xlink" xmlns:serif="http://www.serif.com/" viewBox="0 0 100 100" version="1.1" xml:space="preserve" style="" x="0px" y="0px" fill-rule="evenodd" clip-rule="evenodd" stroke-linejoin="round" stroke-miterlimit="2"><rect serif:id="Page 33" x="0" y="0" width="100" height="100" style="" fill="none"/><path d="M30.996,34.337c-4.194,-4.197 -6.096,-10.457 -4.449,-16.601c2.162,-8.071 9.742,-13.257 17.78,-12.694c0.804,0.062 1.537,0.478 2.003,1.135c0.465,0.658 0.614,1.488 0.405,2.266c0.036,0.01 0.036,0.01 0.036,0.01c-1.568,5.851 -1.14,11.77 0.866,17.034c0.003,-5.934 3.084,-11.704 8.593,-14.885c7.237,-4.178 16.263,-2.486 21.549,3.597c0.524,0.611 0.749,1.424 0.613,2.218c-0.136,0.794 -0.618,1.487 -1.315,1.89c0.018,0.032 0.018,0.032 0.018,0.032c-5.246,3.028 -9.129,7.516 -11.432,12.657c4.197,-4.194 10.457,-6.096 16.601,-4.449c8.071,2.162 13.257,9.742 12.694,17.78c-0.062,0.804 -0.478,1.537 -1.135,2.003c-0.658,0.465 -1.488,0.614 -2.266,0.405c-0.01,0.036 -0.01,0.036 -0.01,0.036c-5.851,-1.568 -11.77,-1.14 -17.034,0.866c5.934,0.003 11.704,3.084 14.885,8.593c4.178,7.237 2.486,16.263 -3.597,21.549c-0.611,0.524 -1.424,0.749 -2.218,0.613c-0.794,-0.136 -1.487,-0.618 -1.89,-1.315c-0.032,0.018 -0.032,0.018 -0.032,0.018c-3.028,-5.246 -7.516,-9.129 -12.657,-11.432c4.194,4.197 6.096,10.457 4.449,16.601c-2.162,8.071 -9.742,13.257 -17.78,12.694c-0.804,-0.062 -1.537,-0.478 -2.003,-1.135c-0.465,-0.658 -0.614,-1.488 -0.405,-2.266c-0.036,-0.01 -0.036,-0.01 -0.036,-0.01c1.568,-5.851 1.14,-11.77 -0.866,-17.034c-0.003,5.934 -3.084,11.704 -8.593,14.885c-7.237,4.178 -16.263,2.486 -21.549,-3.597c-0.524,-0.611 -0.749,-1.424 -0.613,-2.218c0.136,-0.794 0.618,-1.487 1.315,-1.89c-0.018,-0.032 -0.018,-0.032 -0.018,-0.032c5.246,-3.028 9.129,-7.516 11.432,-12.657c-4.197,4.194 -10.457,6.096 -16.601,4.449c-8.071,-2.162 -13.257,-9.742 -12.694,-17.78c0.062,-0.804 0.478,-1.537 1.135,-2.003c0.658,-0.465 1.488,-0.614 2.266,-0.405c0.01,-0.036 0.01,-0.036 0.01,-0.036c5.851,1.568 11.77,1.14 17.034,-0.866c-5.934,-0.003 -11.704,-3.084 -14.885,-8.593c-4.178,-7.237 -2.486,-16.263 3.597,-21.549c0.611,-0.524 1.424,-0.749 2.218,-0.613c0.794,0.136 1.487,0.618 1.89,1.315c0.032,-0.018 0.032,-0.018 0.032,-0.018c3.028,5.246 7.516,9.129 12.657,11.432Z"/></svg>