<svg xmlns="http://www.w3.org/2000/svg" data-name="Layer 1" viewBox="0 0 100 100" x="0px" y="0px">x<path class="cls-1" stroke-width="0" d="m64,79h13c1.65,0,3-1.35,3-3h0c0-1.66-1.34-3-3-3h-9.21l1.88-1.73c6.31-5.83,9.7-14.08,9.31-22.63-.67-14.53-12.55-26.64-27.05-27.58-8.1-.53-15.82,2.24-21.73,7.79-5.83,5.47-9.18,13.18-9.18,21.15,0,13.49,9.17,25.09,22.3,28.21.9.21,1.83,0,2.56-.57.73-.57,1.14-1.43,1.14-2.36,0-1.39-.96-2.59-2.33-2.92-11.12-2.65-18.52-12.86-17.59-24.28.92-11.28,10.13-20.33,21.44-21.05,6.42-.41,12.53,1.79,17.21,6.19,4.62,4.34,7.27,10.45,7.27,16.76,0,6.86-3.05,13.31-8.36,17.71l-1.64,1.35v-10.07c0-1.65-1.34-3-3-3s-3,1.35-3,3v13c0,3.86,3.14,7,7,7Z"/></svg>